<svg width="830" height="149" viewBox="0 0 830 149" fill="none" xmlns="http://www.w3.org/2000/svg">
<path d="M34.912 111.008C28.288 111.008 22.336 109.856 17.056 107.552C11.872 105.152 7.79201 101.888 4.81601 97.76C1.84001 93.536 0.304008 88.688 0.208008 83.216H14.176C14.656 87.92 16.576 91.904 19.936 95.168C23.392 98.336 28.384 99.92 34.912 99.92C41.152 99.92 46.048 98.384 49.6 95.312C53.248 92.144 55.072 88.112 55.072 83.216C55.072 79.376 54.016 76.256 51.904 73.856C49.792 71.456 47.152 69.632 43.984 68.384C40.816 67.136 36.544 65.792 31.168 64.352C24.544 62.624 19.216 60.896 15.184 59.168C11.248 57.44 7.84001 54.752 4.96001 51.104C2.17601 47.36 0.784008 42.368 0.784008 36.128C0.784008 30.656 2.17601 25.808 4.96001 21.584C7.74401 17.36 11.632 14.096 16.624 11.792C21.712 9.48799 27.52 8.33599 34.048 8.33599C43.456 8.33599 51.136 10.688 57.088 15.392C63.136 20.096 66.544 26.336 67.312 34.112H52.912C52.432 30.272 50.416 26.912 46.864 24.032C43.312 21.056 38.608 19.568 32.752 19.568C27.28 19.568 22.816 21.008 19.36 23.888C15.904 26.672 14.176 30.608 14.176 35.696C14.176 39.344 15.184 42.32 17.2 44.624C19.312 46.928 21.856 48.704 24.832 49.952C27.904 51.104 32.176 52.448 37.648 53.984C44.272 55.808 49.6 57.632 53.632 59.456C57.664 61.184 61.12 63.92 64 67.664C66.88 71.312 68.32 76.304 68.32 82.64C68.32 87.536 67.024 92.144 64.432 96.464C61.84 100.784 58 104.288 52.912 106.976C47.824 109.664 41.824 111.008 34.912 111.008Z" fill="#FAFAFA"/>
<path d="M157.588 31.088V110H144.484V98.336C141.988 102.368 138.484 105.536 133.972 107.84C129.556 110.048 124.66 111.152 119.284 111.152C113.14 111.152 107.62 109.904 102.724 107.408C97.8276 104.816 93.9396 100.976 91.0596 95.888C88.2756 90.8 86.8836 84.608 86.8836 77.312V31.088H99.8436V75.584C99.8436 83.36 101.812 89.36 105.748 93.584C109.684 97.712 115.06 99.776 121.876 99.776C128.884 99.776 134.404 97.616 138.436 93.296C142.468 88.976 144.484 82.688 144.484 74.432V31.088H157.588Z" fill="#FAFAFA"/>
<path d="M218.161 29.648C227.761 29.648 235.537 32.576 241.489 38.432C247.441 44.192 250.417 52.544 250.417 63.488V110H237.457V65.36C237.457 57.488 235.489 51.488 231.553 47.36C227.617 43.136 222.241 41.024 215.425 41.024C208.513 41.024 202.993 43.184 198.865 47.504C194.833 51.824 192.817 58.112 192.817 66.368V110H179.713V31.088H192.817V42.32C195.409 38.288 198.913 35.168 203.329 32.96C207.841 30.752 212.785 29.648 218.161 29.648Z" fill="#FAFAFA"/>
<path d="M387.541 9.63199V110H374.437V64.496H323.317V110H310.213V9.63199H323.317V53.696H374.437V9.63199H387.541Z" fill="#FAFAFA"/>
<path d="M416.684 18.272C414.188 18.272 412.076 17.408 410.348 15.68C408.62 13.952 407.756 11.84 407.756 9.34398C407.756 6.84799 408.62 4.73599 410.348 3.00799C412.076 1.27999 414.188 0.415985 416.684 0.415985C419.084 0.415985 421.1 1.27999 422.732 3.00799C424.46 4.73599 425.324 6.84799 425.324 9.34398C425.324 11.84 424.46 13.952 422.732 15.68C421.1 17.408 419.084 18.272 416.684 18.272ZM423.02 31.088V110H409.916V31.088H423.02Z" fill="#FAFAFA"/>
<path d="M477.898 29.792C484.714 29.792 490.666 31.28 495.754 34.256C500.938 37.232 504.778 40.976 507.274 45.488V31.088H520.522V111.728C520.522 118.928 518.986 125.312 515.914 130.88C512.842 136.544 508.426 140.96 502.666 144.128C497.002 147.296 490.378 148.88 482.794 148.88C472.426 148.88 463.786 146.432 456.874 141.536C449.962 136.64 445.882 129.968 444.634 121.52H457.594C459.034 126.32 462.01 130.16 466.522 133.04C471.034 136.016 476.458 137.504 482.794 137.504C489.994 137.504 495.85 135.248 500.362 130.736C504.97 126.224 507.274 119.888 507.274 111.728V95.168C504.682 99.776 500.842 103.616 495.754 106.688C490.666 109.76 484.714 111.296 477.898 111.296C470.89 111.296 464.506 109.568 458.746 106.112C453.082 102.656 448.618 97.808 445.354 91.568C442.09 85.328 440.458 78.224 440.458 70.256C440.458 62.192 442.09 55.136 445.354 49.088C448.618 42.944 453.082 38.192 458.746 34.832C464.506 31.472 470.89 29.792 477.898 29.792ZM507.274 70.4C507.274 64.448 506.074 59.264 503.674 54.848C501.274 50.432 498.01 47.072 493.882 44.768C489.85 42.368 485.386 41.168 480.49 41.168C475.594 41.168 471.13 42.32 467.098 44.624C463.066 46.928 459.85 50.288 457.45 54.704C455.05 59.12 453.85 64.304 453.85 70.256C453.85 76.304 455.05 81.584 457.45 86.096C459.85 90.512 463.066 93.92 467.098 96.32C471.13 98.624 475.594 99.776 480.49 99.776C485.386 99.776 489.85 98.624 493.882 96.32C498.01 93.92 501.274 90.512 503.674 86.096C506.074 81.584 507.274 76.352 507.274 70.4Z" fill="#FAFAFA"/>
<path d="M612.65 31.088V110H599.546V98.336C597.05 102.368 593.546 105.536 589.034 107.84C584.618 110.048 579.722 111.152 574.346 111.152C568.202 111.152 562.682 109.904 557.786 107.408C552.89 104.816 549.002 100.976 546.122 95.888C543.338 90.8 541.946 84.608 541.946 77.312V31.088H554.906V75.584C554.906 83.36 556.874 89.36 560.81 93.584C564.746 97.712 570.122 99.776 576.938 99.776C583.946 99.776 589.466 97.616 593.498 93.296C597.53 88.976 599.546 82.688 599.546 74.432V31.088H612.65Z" fill="#FAFAFA"/>
<path d="M629.88 70.4C629.88 62.24 631.512 55.136 634.776 49.088C638.04 42.944 642.552 38.192 648.312 34.832C654.168 31.472 660.84 29.792 668.328 29.792C678.024 29.792 685.992 32.144 692.232 36.848C698.568 41.552 702.744 48.08 704.76 56.432H690.648C689.304 51.632 686.663 47.84 682.727 45.056C678.887 42.272 674.088 40.88 668.328 40.88C660.84 40.88 654.791 43.472 650.183 48.656C645.575 53.744 643.271 60.992 643.271 70.4C643.271 79.904 645.575 87.248 650.183 92.432C654.791 97.616 660.84 100.208 668.328 100.208C674.088 100.208 678.887 98.864 682.727 96.176C686.567 93.488 689.208 89.648 690.648 84.656H704.76C702.648 92.72 698.424 99.2 692.088 104.096C685.752 108.896 677.832 111.296 668.328 111.296C660.84 111.296 654.168 109.616 648.312 106.256C642.552 102.896 638.04 98.144 634.776 92C631.512 85.856 629.88 78.656 629.88 70.4Z" fill="#FAFAFA"/>
<path d="M761.412 29.648C767.364 29.648 772.74 30.944 777.54 33.536C782.34 36.032 786.084 39.824 788.772 44.912C791.556 50 792.948 56.192 792.948 63.488V110H779.988V65.36C779.988 57.488 778.02 51.488 774.084 47.36C770.148 43.136 764.772 41.024 757.956 41.024C751.044 41.024 745.524 43.184 741.396 47.504C737.364 51.824 735.348 58.112 735.348 66.368V110H722.244V3.43999H735.348V42.32C737.94 38.288 741.492 35.168 746.004 32.96C750.612 30.752 755.748 29.648 761.412 29.648Z" fill="#FAFAFA"/>
<path d="M821.122 18.272C818.626 18.272 816.514 17.408 814.786 15.68C813.058 13.952 812.194 11.84 812.194 9.34398C812.194 6.84799 813.058 4.73599 814.786 3.00799C816.514 1.27999 818.626 0.415985 821.122 0.415985C823.522 0.415985 825.538 1.27999 827.17 3.00799C828.898 4.73599 829.762 6.84799 829.762 9.34398C829.762 11.84 828.898 13.952 827.17 15.68C825.538 17.408 823.522 18.272 821.122 18.272ZM827.458 31.088V110H814.354V31.088H827.458Z" fill="#FAFAFA"/>
</svg>
